<svg viewBox="0 0 200 200" xmlns="http://www.w3.org/2000/svg" role="img" aria-label="TestScope logo">
  <g fill="none" stroke="#111827" stroke-width="1">
    <g transform="translate(100,100)">
      <path d="M0,-70 C30,-70 60,-40 60,0 C60,40 30,70 0,70 C-30,70 -60,40 -60,0 C-60,-40 -30,-70 0,-70 Z" />
      <path transform="rotate(120)" d="M0,-70 C30,-70 60,-40 60,0 C60,40 30,70 0,70 C-30,70 -60,40 -60,0 C-60,-40 -30,-70 0,-70 Z" />
      <path transform="rotate(240)" d="M0,-70 C30,-70 60,-40 60,0 C60,40 30,70 0,70 C-30,70 -60,40 -60,0 C-60,-40 -30,-70 0,-70 Z" />
    </g>
  </g>
</svg>


